<svg xmlns="http://www.w3.org/2000/svg" viewBox="0 0 64 64">
  <!-- Pig face -->
  <circle cx="32" cy="32" r="24" fill="#FFB6C1" stroke="#FF69B4" stroke-width="2"/>
  
  <!-- Ears -->
  <ellipse cx="20" cy="18" rx="8" ry="10" fill="#FFB6C1" stroke="#FF69B4" stroke-width="2" transform="rotate(-30 20 18)"/>
  <ellipse cx="44" cy="18" rx="8" ry="10" fill="#FFB6C1" stroke="#FF69B4" stroke-width="2" transform="rotate(30 44 18)"/>
  
  <!-- Inner ears -->
  <ellipse cx="20" cy="20" rx="4" ry="5" fill="#FF8FA3" transform="rotate(-30 20 20)"/>
  <ellipse cx="44" cy="20" rx="4" ry="5" fill="#FF8FA3" transform="rotate(30 44 20)"/>
  
  <!-- Eyes -->
  <circle cx="24" cy="28" r="3" fill="#000"/>
  <circle cx="40" cy="28" r="3" fill="#000"/>
  
  <!-- Snout -->
  <ellipse cx="32" cy="38" rx="10" ry="8" fill="#FF8FA3" stroke="#FF69B4" stroke-width="1.5"/>
  
  <!-- Nostrils -->
  <ellipse cx="28" cy="38" rx="2" ry="3" fill="#FF69B4"/>
  <ellipse cx="36" cy="38" rx="2" ry="3" fill="#FF69B4"/>
  
  <!-- Musical note -->
  <path d="M 48 40 Q 48 32 48 30 L 48 22 L 52 20 L 52 28 Q 52 36 52 38" fill="none" stroke="#000" stroke-width="2"/>
  <ellipse cx="46" cy="40" rx="3" ry="2" fill="#000"/>
  <ellipse cx="50" cy="38" rx="3" ry="2" fill="#000"/>
</svg>